<svg width="24" height="25" viewBox="0 0 24 25" fill="none" xmlns="http://www.w3.org/2000/svg">
<g id="vuesax/bold/edit-2">
<g id="edit-2">
<path id="Vector" d="M21 22.5H3C2.59 22.5 2.25 22.16 2.25 21.75C2.25 21.34 2.59 21 3 21H21C21.41 21 21.75 21.34 21.75 21.75C21.75 22.16 21.41 22.5 21 22.5Z" fill="#F2F4F7"/>
<path id="Vector_2" d="M19.02 3.98C17.08 2.04 15.18 1.99 13.19 3.98L11.98 5.19C11.88 5.29 11.84 5.45 11.88 5.59C12.64 8.24 14.76 10.36 17.41 11.12C17.45 11.13 17.49 11.14 17.53 11.14C17.64 11.14 17.74 11.1 17.82 11.02L19.02 9.81C20.01 8.83 20.49 7.88 20.49 6.92C20.5 5.93 20.02 4.97 19.02 3.98Z" fill="#F2F4F7"/>
<path id="Vector_3" d="M15.61 12.03C15.32 11.89 15.04 11.75 14.77 11.59C14.55 11.46 14.34 11.32 14.13 11.17C13.96 11.06 13.76 10.9 13.57 10.74C13.55 10.73 13.48 10.67 13.4 10.59C13.07 10.31 12.7 9.95 12.37 9.55C12.34 9.53 12.29 9.46 12.22 9.37C12.12 9.25 11.95 9.05 11.8 8.82C11.68 8.67 11.54 8.45 11.41 8.23C11.25 7.96 11.11 7.69 10.97 7.41C10.9488 7.36461 10.9283 7.31944 10.9085 7.27454C10.7609 6.94122 10.3262 6.84378 10.0685 7.10153L4.34001 12.83C4.21001 12.96 4.09001 13.21 4.06001 13.38L3.52001 17.21C3.42001 17.89 3.61001 18.53 4.03001 18.96C4.39001 19.31 4.89001 19.5 5.43001 19.5C5.55001 19.5 5.67001 19.49 5.79001 19.47L9.63001 18.93C9.81001 18.9 10.06 18.78 10.18 18.65L15.9013 12.9287C16.1609 12.6691 16.063 12.2237 15.7254 12.0796C15.6874 12.0634 15.6489 12.0469 15.61 12.03Z" fill="#F2F4F7"/>
</g>
</g>
</svg>
