<svg width="25" height="24" viewBox="0 0 25 24" fill="none" xmlns="http://www.w3.org/2000/svg">
<g id="Rainy">
<path id="Vector 9" d="M10.7441 10.2438C10.0273 9.69244 8.77448 9.10987 7.52458 9.3416M8.40268 16.0975C4.89048 16.0975 4.5978 13.1707 4.89048 11.7073C5.22233 10.048 6.563 9.51987 7.52458 9.3416M17.4758 16.0975C18.9392 15.8048 21.2807 15.2195 20.988 11.4146C20.8533 9.66365 18.4709 7.9609 16.5978 8.19504C16.5978 6.92675 15.7197 4.33163 12.2075 4.09749C7.81726 3.8048 6.93921 8.73205 7.52458 9.3416M12.5002 11.9999C12.5002 11.9999 11.427 13.756 11.3295 14.3414C11.2319 14.9268 11.6122 16.0975 12.6173 16.0975C13.6223 16.0975 14.2459 15.1883 13.9636 14.3414C13.6709 13.4634 12.5002 11.9999 12.5002 11.9999ZM9.86604 16.0975C9.86604 16.0975 8.79287 17.8536 8.69531 18.439C8.59775 19.0243 8.97805 20.1951 9.98312 20.195C10.9882 20.195 11.6118 19.2859 11.3295 18.439C11.0368 17.5609 9.86604 16.0975 9.86604 16.0975ZM15.0173 16.3902C15.0173 16.3902 13.9441 18.1463 13.8465 18.7317C13.749 19.317 14.1293 20.4878 15.1343 20.4877C16.1394 20.4877 16.763 19.5786 16.4807 18.7317C16.188 17.8536 15.0173 16.3902 15.0173 16.3902Z" stroke="#FCFCFD"/>
</g>
</svg>
