<svg width="144" height="144" viewBox="0 0 144 144" fill="none" xmlns="http://www.w3.org/2000/svg">
  <path d="M74.8953 122.86C74.8953 126.287 72.0086 129.066 68.4475 129.066C64.8865 129.066 61.9998 126.287 61.9998 122.86C61.9998 119.432 64.7723 115.744 68.4475 111C71.5425 115.614 74.8953 119.432 74.8953 122.86Z" fill="url(#paint0_linear_6_1542)" />
  <path d="M55.8953 105.86C55.8953 109.287 53.0086 112.066 49.4475 112.066C45.8865 112.066 42.9998 109.287 42.9998 105.86C42.9998 102.432 45.7723 98.7438 49.4475 94C52.5425 98.6139 55.8953 102.432 55.8953 105.86Z" fill="url(#paint1_linear_6_1542)" />
  <path d="M96.8953 105.86C96.8953 109.287 94.0086 112.066 90.4475 112.066C86.8865 112.066 83.9998 109.287 83.9998 105.86C83.9998 102.432 86.7723 98.7438 90.4475 94C93.5425 98.6139 96.8953 102.432 96.8953 105.86Z" fill="url(#paint2_linear_6_1542)" />
  <mask id="path-4-inside-1_6_1542" fill="white">
    <path fill-rule="evenodd" clip-rule="evenodd" d="M94.5612 38.1671C89.2516 21.9037 73.9295 10.1503 55.8556 10.1503C33.3785 10.1503 15.1572 28.3282 15.1572 50.7518C15.1572 73.1752 33.3783 91.3531 55.8552 91.3533V91.3536H101.709V91.3532C101.709 91.3532 101.709 91.3532 101.709 91.3532C116.694 91.3532 128.841 79.2346 128.841 64.2856C128.841 49.3365 116.694 37.2179 101.709 37.2179C99.2352 37.2179 96.8386 37.5482 94.5612 38.1671Z" />
  </mask>
  <g filter="url(#filter0_i_6_1542)">
    <path fill-rule="evenodd" clip-rule="evenodd" d="M94.5612 38.1671C89.2516 21.9037 73.9295 10.1503 55.8556 10.1503C33.3785 10.1503 15.1572 28.3282 15.1572 50.7518C15.1572 73.1752 33.3783 91.3531 55.8552 91.3533V91.3536H101.709V91.3532C101.709 91.3532 101.709 91.3532 101.709 91.3532C116.694 91.3532 128.841 79.2346 128.841 64.2856C128.841 49.3365 116.694 37.2179 101.709 37.2179C99.2352 37.2179 96.8386 37.5482 94.5612 38.1671Z" fill="url(#paint3_linear_6_1542)" />
  </g>
  <path d="M94.5612 38.1671L93.6606 38.4611L93.9402 39.3175L94.8096 39.0813L94.5612 38.1671ZM55.8552 91.3533H56.8026V90.4059L55.8552 90.4059L55.8552 91.3533ZM55.8552 91.3536H54.9078V92.3009H55.8552V91.3536ZM101.709 91.3536V92.3009H102.656V91.3536H101.709ZM101.709 91.3532V90.4059H100.761V91.3532H101.709ZM95.4618 37.873C90.0284 21.2304 74.3502 9.20293 55.8556 9.20293V11.0977C73.5088 11.0977 88.4749 22.5771 93.6606 38.4611L95.4618 37.873ZM55.8556 9.20293C32.8574 9.20293 14.2099 27.8029 14.2099 50.7518H16.1046C16.1046 28.8535 33.8996 11.0977 55.8556 11.0977V9.20293ZM14.2099 50.7518C14.2099 73.7006 32.8572 92.3004 55.8552 92.3006L55.8552 90.4059C33.8994 90.4057 16.1046 72.6499 16.1046 50.7518H14.2099ZM54.9078 91.3533V91.3536H56.8026V91.3533H54.9078ZM55.8552 92.3009H101.709V90.4062H55.8552V92.3009ZM102.656 91.3536V91.3532H100.761V91.3536H102.656ZM101.709 90.4059H101.709C101.709 90.4059 101.709 90.4059 101.709 90.4059C101.709 90.4059 101.709 90.4059 101.709 90.4059C101.709 90.4059 101.709 90.4059 101.709 90.4059C101.709 90.4059 101.709 90.4059 101.709 90.4059H101.709H101.709C101.709 90.4059 101.709 90.4059 101.709 90.4059C101.709 90.4059 101.709 90.4059 101.709 90.4059C101.709 90.4059 101.709 90.4059 101.709 90.4059C101.709 90.4059 101.709 90.4059 101.709 90.4059H101.709H101.709C101.709 90.4059 101.709 90.4059 101.709 90.4059C101.709 90.4059 101.709 90.4059 101.709 90.4059C101.709 90.4059 101.709 90.4059 101.709 90.4059C101.709 90.4059 101.709 90.4059 101.709 90.4059H101.709H101.709C101.709 90.4059 101.709 90.4059 101.709 90.4059C101.709 90.4059 101.709 90.4059 101.709 90.4059C101.709 90.4059 101.709 90.4059 101.709 90.4059C101.709 90.4059 101.709 90.4059 101.709 90.4059H101.709H101.709C101.709 90.4059 101.709 90.4059 101.709 90.4059C101.709 90.4059 101.709 90.4059 101.709 90.4059C101.709 90.4059 101.709 90.4059 101.709 90.4059C101.709 90.4059 101.709 90.4059 101.709 90.4059H101.709H101.709C101.709 90.4059 101.709 90.4059 101.709 90.4059C101.709 90.4059 101.709 90.4059 101.709 90.4059C101.709 90.4059 101.709 90.4059 101.709 90.4059C101.709 90.4059 101.709 90.4059 101.709 90.4059H101.709H101.709C101.709 90.4059 101.709 90.4059 101.709 90.4059C101.709 90.4059 101.709 90.4059 101.709 90.4059C101.709 90.4059 101.709 90.4059 101.709 90.4059C101.709 90.4059 101.709 90.4059 101.709 90.4059H101.709H101.709C101.709 90.4059 101.709 90.4059 101.709 90.4059C101.709 90.4059 101.709 90.4059 101.709 90.4059C101.709 90.4059 101.709 90.4059 101.709 90.4059C101.709 90.4059 101.709 90.4059 101.709 90.4059H101.709V92.3006H101.709C101.709 92.3006 101.709 92.3006 101.709 92.3006C101.709 92.3006 101.709 92.3006 101.709 92.3006C101.709 92.3006 101.709 92.3006 101.709 92.3006C101.709 92.3006 101.709 92.3006 101.709 92.3006H101.709H101.709C101.709 92.3006 101.709 92.3006 101.709 92.3006C101.709 92.3006 101.709 92.3006 101.709 92.3006C101.709 92.3006 101.709 92.3006 101.709 92.3006C101.709 92.3006 101.709 92.3006 101.709 92.3006H101.709H101.709C101.709 92.3006 101.709 92.3006 101.709 92.3006C101.709 92.3006 101.709 92.3006 101.709 92.3006C101.709 92.3006 101.709 92.3006 101.709 92.3006C101.709 92.3006 101.709 92.3006 101.709 92.3006H101.709H101.709C101.709 92.3006 101.709 92.3006 101.709 92.3006C101.709 92.3006 101.709 92.3006 101.709 92.3006C101.709 92.3006 101.709 92.3006 101.709 92.3006C101.709 92.3006 101.709 92.3006 101.709 92.3006H101.709H101.709C101.709 92.3006 101.709 92.3006 101.709 92.3006C101.709 92.3006 101.709 92.3006 101.709 92.3006C101.709 92.3006 101.709 92.3006 101.709 92.3006C101.709 92.3006 101.709 92.3006 101.709 92.3006H101.709H101.709C101.709 92.3006 101.709 92.3006 101.709 92.3006C101.709 92.3006 101.709 92.3006 101.709 92.3006C101.709 92.3006 101.709 92.3006 101.709 92.3006C101.709 92.3006 101.709 92.3006 101.709 92.3006H101.709H101.709C101.709 92.3006 101.709 92.3006 101.709 92.3006C101.709 92.3006 101.709 92.3006 101.709 92.3006C101.709 92.3006 101.709 92.3006 101.709 92.3006C101.709 92.3006 101.709 92.3006 101.709 92.3006H101.709H101.709C101.709 92.3006 101.709 92.3006 101.709 92.3006C101.709 92.3006 101.709 92.3006 101.709 92.3006C101.709 92.3006 101.709 92.3006 101.709 92.3006C101.709 92.3006 101.709 92.3006 101.709 92.3006H101.709V90.4059ZM127.894 64.2856C127.894 78.7093 116.173 90.4059 101.709 90.4059V92.3006C117.215 92.3006 129.789 79.76 129.789 64.2856H127.894ZM101.709 38.1653C116.173 38.1653 127.894 49.8619 127.894 64.2856H129.789C129.789 48.8112 117.215 36.2705 101.709 36.2705V38.1653ZM94.8096 39.0813C97.0068 38.4842 99.3198 38.1653 101.709 38.1653V36.2705C99.1505 36.2705 96.6704 36.6122 94.3128 37.2528L94.8096 39.0813Z" fill="black" fill-opacity="0.05" mask="url(#path-4-inside-1_6_1542)" />
  <defs>
    <filter id="filter0_i_6_1542" x="15.1572" y="10.1503" width="113.684" height="127.29" filterUnits="userSpaceOnUse" color-interpolation-filters="sRGB">
      <feFlood flood-opacity="0" result="BackgroundImageFix" />
      <feBlend mode="normal" in="SourceGraphic" in2="BackgroundImageFix" result="shape" />
      <feColorMatrix in="SourceAlpha" type="matrix" values="0 0 0 0 0 0 0 0 0 0 0 0 0 0 0 0 0 0 127 0" result="hardAlpha" />
      <feOffset dy="46.0864" />
      <feGaussianBlur stdDeviation="28.4211" />
      <feComposite in2="hardAlpha" operator="arithmetic" k2="-1" k3="1" />
      <feColorMatrix type="matrix" values="0 0 0 0 1 0 0 0 0 1 0 0 0 0 1 0 0 0 1 0" />
      <feBlend mode="normal" in2="shape" result="effect1_innerShadow_6_1542" />
    </filter>
    <linearGradient id="paint0_linear_6_1542" x1="76.7429" y1="132" x2="62.3802" y2="113.891" gradientUnits="userSpaceOnUse">
      <stop stop-color="#14B9EF" />
      <stop offset="0.0001" stop-color="#8CE2FF" />
      <stop offset="1" stop-color="#0638AD" />
    </linearGradient>
    <linearGradient id="paint1_linear_6_1542" x1="57.7429" y1="115" x2="43.3802" y2="96.8911" gradientUnits="userSpaceOnUse">
      <stop stop-color="#14B9EF" />
      <stop offset="0.0001" stop-color="#8CE2FF" />
      <stop offset="1" stop-color="#0638AD" />
    </linearGradient>
    <linearGradient id="paint2_linear_6_1542" x1="98.7429" y1="115" x2="84.3802" y2="96.8911" gradientUnits="userSpaceOnUse">
      <stop stop-color="#14B9EF" />
      <stop offset="0.0001" stop-color="#8CE2FF" />
      <stop offset="1" stop-color="#0638AD" />
    </linearGradient>
    <linearGradient id="paint3_linear_6_1542" x1="23.1214" y1="10.1503" x2="128.695" y2="91.5861" gradientUnits="userSpaceOnUse">
      <stop stop-color="white" />
      <stop offset="1" stop-color="#C1C1C1" />
    </linearGradient>
  </defs>
</svg>
