<svg width="144" height="144" viewBox="0 0 144 144" fill="none" xmlns="http://www.w3.org/2000/svg">
  <path d="M74.4393 120.06C74.4393 122.041 72.7705 123.648 70.7119 123.648C68.6532 123.648 66.9844 122.041 66.9844 120.06C66.9844 118.078 68.5872 115.946 70.7119 113.204C72.5011 115.871 74.4393 118.078 74.4393 120.06Z" fill="url(#paint0_linear_6_1594)" />
  <path d="M63.455 110.232C63.455 112.214 61.7861 113.82 59.7275 113.82C57.6689 113.82 56 112.214 56 110.232C56 108.251 57.6028 106.118 59.7275 103.376C61.5167 106.043 63.455 108.251 63.455 110.232Z" fill="url(#paint1_linear_6_1594)" />
  <path d="M87.1571 110.232C87.1571 112.214 85.4883 113.82 83.4296 113.82C81.371 113.82 79.7021 112.214 79.7021 110.232C79.7021 108.251 81.305 106.118 83.4296 103.376C85.2188 106.043 87.1571 108.251 87.1571 110.232Z" fill="url(#paint2_linear_6_1594)" />
  <mask id="path-4-inside-1_6_1594" fill="white">
    <path fill-rule="evenodd" clip-rule="evenodd" d="M94.404 48.0168C89.0944 31.7534 73.7723 20 55.6984 20C33.2213 20 15 38.1779 15 60.6015C15 83.0249 33.2211 101.203 55.698 101.203V101.203H101.552V101.203C101.552 101.203 101.552 101.203 101.552 101.203C116.537 101.203 128.684 89.0843 128.684 74.1353C128.684 59.1862 116.537 47.0676 101.552 47.0676C99.0779 47.0676 96.6813 47.3979 94.404 48.0168Z" />
  </mask>
  <g filter="url(#filter0_i_6_1594)">
    <path fill-rule="evenodd" clip-rule="evenodd" d="M94.404 48.0168C89.0944 31.7534 73.7723 20 55.6984 20C33.2213 20 15 38.1779 15 60.6015C15 83.0249 33.2211 101.203 55.698 101.203V101.203H101.552V101.203C101.552 101.203 101.552 101.203 101.552 101.203C116.537 101.203 128.684 89.0843 128.684 74.1353C128.684 59.1862 116.537 47.0676 101.552 47.0676C99.0779 47.0676 96.6813 47.3979 94.404 48.0168Z" fill="url(#paint3_linear_6_1594)" />
  </g>
  <path d="M94.404 48.0168L93.5034 48.3108L93.783 49.1672L94.6524 48.931L94.404 48.0168ZM55.698 101.203H56.6454V100.256L55.698 100.256L55.698 101.203ZM55.698 101.203H54.7506V102.151H55.698V101.203ZM101.552 101.203V102.151H102.499V101.203H101.552ZM101.552 101.203V100.256H100.604V101.203H101.552ZM95.3046 47.7227C89.8711 31.0801 74.193 19.0526 55.6984 19.0526V20.9474C73.3516 20.9474 88.3177 32.4268 93.5034 48.3108L95.3046 47.7227ZM55.6984 19.0526C32.7002 19.0526 14.0526 37.6526 14.0526 60.6015H15.9474C15.9474 38.7033 33.7424 20.9474 55.6984 20.9474V19.0526ZM14.0526 60.6015C14.0526 83.5503 32.7 102.15 55.698 102.15L55.698 100.256C33.7422 100.255 15.9474 82.4996 15.9474 60.6015H14.0526ZM54.7506 101.203V101.203H56.6454V101.203H54.7506ZM55.698 102.151H101.552V100.256H55.698V102.151ZM102.499 101.203V101.203H100.604V101.203H102.499ZM101.552 100.256H101.552C101.552 100.256 101.552 100.256 101.552 100.256C101.552 100.256 101.552 100.256 101.552 100.256C101.552 100.256 101.552 100.256 101.552 100.256C101.552 100.256 101.552 100.256 101.552 100.256H101.552H101.552C101.552 100.256 101.552 100.256 101.552 100.256C101.552 100.256 101.552 100.256 101.552 100.256C101.552 100.256 101.552 100.256 101.552 100.256C101.552 100.256 101.552 100.256 101.552 100.256H101.552H101.552C101.552 100.256 101.552 100.256 101.552 100.256C101.552 100.256 101.552 100.256 101.552 100.256C101.552 100.256 101.552 100.256 101.552 100.256C101.552 100.256 101.552 100.256 101.552 100.256H101.552H101.552C101.552 100.256 101.552 100.256 101.552 100.256C101.552 100.256 101.552 100.256 101.552 100.256C101.552 100.256 101.552 100.256 101.552 100.256C101.552 100.256 101.552 100.256 101.552 100.256H101.552H101.552C101.552 100.256 101.552 100.256 101.552 100.256C101.552 100.256 101.552 100.256 101.552 100.256C101.552 100.256 101.552 100.256 101.552 100.256C101.552 100.256 101.552 100.256 101.552 100.256H101.552H101.552C101.552 100.256 101.552 100.256 101.552 100.256C101.552 100.256 101.552 100.256 101.552 100.256C101.552 100.256 101.552 100.256 101.552 100.256C101.552 100.256 101.552 100.256 101.552 100.256H101.552H101.552C101.552 100.256 101.552 100.256 101.552 100.256C101.552 100.256 101.552 100.256 101.552 100.256C101.552 100.256 101.552 100.256 101.552 100.256C101.552 100.256 101.552 100.256 101.552 100.256H101.552H101.552C101.552 100.256 101.552 100.256 101.552 100.256C101.552 100.256 101.552 100.256 101.552 100.256C101.552 100.256 101.552 100.256 101.552 100.256C101.552 100.256 101.552 100.256 101.552 100.256H101.552V102.15H101.552C101.552 102.15 101.552 102.15 101.552 102.15C101.552 102.15 101.552 102.15 101.552 102.15C101.552 102.15 101.552 102.15 101.552 102.15C101.552 102.15 101.552 102.15 101.552 102.15H101.552H101.552C101.552 102.15 101.552 102.15 101.552 102.15C101.552 102.15 101.552 102.15 101.552 102.15C101.552 102.15 101.552 102.15 101.552 102.15C101.552 102.15 101.552 102.15 101.552 102.15H101.552H101.552C101.552 102.15 101.552 102.15 101.552 102.15C101.552 102.15 101.552 102.15 101.552 102.15C101.552 102.15 101.552 102.15 101.552 102.15C101.552 102.15 101.552 102.15 101.552 102.15H101.552H101.552C101.552 102.15 101.552 102.15 101.552 102.15C101.552 102.15 101.552 102.15 101.552 102.15C101.552 102.15 101.552 102.15 101.552 102.15C101.552 102.15 101.552 102.15 101.552 102.15H101.552H101.552C101.552 102.15 101.552 102.15 101.552 102.15C101.552 102.15 101.552 102.15 101.552 102.15C101.552 102.15 101.552 102.15 101.552 102.15C101.552 102.15 101.552 102.15 101.552 102.15H101.552H101.552C101.552 102.15 101.552 102.15 101.552 102.15C101.552 102.15 101.552 102.15 101.552 102.15C101.552 102.15 101.552 102.15 101.552 102.15C101.552 102.15 101.552 102.15 101.552 102.15H101.552H101.552C101.552 102.15 101.552 102.15 101.552 102.15C101.552 102.15 101.552 102.15 101.552 102.15C101.552 102.15 101.552 102.15 101.552 102.15C101.552 102.15 101.552 102.15 101.552 102.15H101.552H101.552C101.552 102.15 101.552 102.15 101.552 102.15C101.552 102.15 101.552 102.15 101.552 102.15C101.552 102.15 101.552 102.15 101.552 102.15C101.552 102.15 101.552 102.15 101.552 102.15H101.552V100.256ZM127.737 74.1353C127.737 88.559 116.016 100.256 101.552 100.256V102.15C117.058 102.15 129.632 89.6097 129.632 74.1353H127.737ZM101.552 48.015C116.016 48.015 127.737 59.7116 127.737 74.1353H129.632C129.632 58.6609 117.058 46.1202 101.552 46.1202V48.015ZM94.6524 48.931C96.8495 48.3339 99.1626 48.015 101.552 48.015V46.1202C98.9933 46.1202 96.5132 46.4619 94.1556 47.1025L94.6524 48.931Z" fill="black" fill-opacity="0.05" mask="url(#path-4-inside-1_6_1594)" />
  <defs>
    <filter id="filter0_i_6_1594" x="15" y="20" width="113.684" height="127.29" filterUnits="userSpaceOnUse" color-interpolation-filters="sRGB">
      <feFlood flood-opacity="0" result="BackgroundImageFix" />
      <feBlend mode="normal" in="SourceGraphic" in2="BackgroundImageFix" result="shape" />
      <feColorMatrix in="SourceAlpha" type="matrix" values="0 0 0 0 0 0 0 0 0 0 0 0 0 0 0 0 0 0 127 0" result="hardAlpha" />
      <feOffset dy="46.0864" />
      <feGaussianBlur stdDeviation="28.4211" />
      <feComposite in2="hardAlpha" operator="arithmetic" k2="-1" k3="1" />
      <feColorMatrix type="matrix" values="0 0 0 0 1 0 0 0 0 1 0 0 0 0 1 0 0 0 1 0" />
      <feBlend mode="normal" in2="shape" result="effect1_innerShadow_6_1594" />
    </filter>
    <linearGradient id="paint0_linear_6_1594" x1="75.5075" y1="125.344" x2="67.2043" y2="114.875" gradientUnits="userSpaceOnUse">
      <stop stop-color="#14B9EF" />
      <stop offset="0.0001" stop-color="#8CE2FF" />
      <stop offset="1" stop-color="#0638AD" />
    </linearGradient>
    <linearGradient id="paint1_linear_6_1594" x1="64.5231" y1="115.516" x2="56.2199" y2="105.047" gradientUnits="userSpaceOnUse">
      <stop stop-color="#14B9EF" />
      <stop offset="0.0001" stop-color="#8CE2FF" />
      <stop offset="1" stop-color="#0638AD" />
    </linearGradient>
    <linearGradient id="paint2_linear_6_1594" x1="88.2252" y1="115.516" x2="79.9221" y2="105.047" gradientUnits="userSpaceOnUse">
      <stop stop-color="#14B9EF" />
      <stop offset="0.0001" stop-color="#8CE2FF" />
      <stop offset="1" stop-color="#0638AD" />
    </linearGradient>
    <linearGradient id="paint3_linear_6_1594" x1="22.9642" y1="20" x2="128.538" y2="101.436" gradientUnits="userSpaceOnUse">
      <stop stop-color="white" />
      <stop offset="1" stop-color="#C1C1C1" />
    </linearGradient>
  </defs>
</svg>
