<svg width="25" height="24" viewBox="0 0 25 24" fill="none" xmlns="http://www.w3.org/2000/svg">
<g id="Sunny">
<g id="Group 294">
<path id="Vector 9" d="M10.7441 11.9997C10.0273 11.4483 8.77448 10.8657 7.52458 11.0975M7.52458 11.0975C6.563 11.2757 5.22233 11.8039 4.89048 13.4631C4.5978 14.9265 4.89048 17.8533 8.40268 17.8533C11.9149 17.8533 15.9148 17.8533 17.4758 17.8533C18.9392 17.5607 21.2807 16.9753 20.988 13.1704C20.8533 11.4195 18.4709 9.71676 16.5978 9.9509C16.5978 8.68261 15.7197 6.08749 12.2075 5.85335C7.81726 5.56066 6.93921 10.4879 7.52458 11.0975Z" stroke="#FCFCFD"/>
<path id="Vector 12" d="M16.8906 4.09766V5.26839" stroke="#FCFCFD"/>
<path id="Vector 13" d="M21.0522 5.63658L20.0455 6.36354" stroke="#FCFCFD"/>
<path id="Vector 14" d="M21.4515 9.6582H20.2808" stroke="#FCFCFD"/>
<path id="Subtract" fill-rule="evenodd" clip-rule="evenodd" d="M19.7637 10.8734C20.3997 10.2516 20.7944 9.38414 20.7944 8.42447C20.7944 6.53319 19.2613 5 17.37 5C16.2852 5 15.3182 5.50438 14.6908 6.29141C14.871 6.44627 15.0335 6.60971 15.1796 6.77878C15.6795 6.11447 16.4745 5.68489 17.37 5.68489C18.883 5.68489 20.1095 6.91145 20.1095 8.42447C20.1095 9.24478 19.749 9.98087 19.1778 10.4829C19.381 10.6015 19.5772 10.7323 19.7637 10.8734Z" fill="#FCFCFD"/>
</g>
</g>
</svg>
