<svg width="145" height="144" viewBox="0 0 145 144" fill="none" xmlns="http://www.w3.org/2000/svg">
  <g filter="url(#filter0_i_6_682)">
    <circle cx="59.0874" cy="52.9126" r="21.9126" fill="url(#paint0_linear_6_682)" />
  </g>
  <path d="M15.9639 79.2899C34.7769 74.6836 53.5898 74.6836 72.4028 79.2899C91.2158 83.8962 110.029 83.8962 128.842 79.2899" stroke="url(#paint1_linear_6_682)" stroke-width="26.2548" stroke-linecap="round" />
  <path d="M19 66.2642C37.813 61.6579 56.626 61.6579 75.439 66.2642C94.252 70.8705 113.065 70.8705 131.878 66.2642" stroke="url(#paint2_linear_6_682)" stroke-width="26.2548" stroke-linecap="round" />
  <path d="M15.1572 94.5307C33.9702 89.9244 52.7832 89.9244 71.5962 94.5307C90.4092 99.1369 109.222 99.1369 128.035 94.5307" stroke="url(#paint3_linear_6_682)" stroke-width="26.2548" stroke-linecap="round" />
  <path d="M15.1572 109.044C33.9702 104.438 52.7832 104.438 71.5962 109.044C90.4092 113.65 109.222 113.65 128.035 109.044" stroke="url(#paint4_linear_6_682)" stroke-width="26.2548" stroke-linecap="round" />
  <defs>
    <filter id="filter0_i_6_682" x="37.1748" y="31" width="43.8252" height="54.7028" filterUnits="userSpaceOnUse" color-interpolation-filters="sRGB">
      <feFlood flood-opacity="0" result="BackgroundImageFix" />
      <feBlend mode="normal" in="SourceGraphic" in2="BackgroundImageFix" result="shape" />
      <feColorMatrix in="SourceAlpha" type="matrix" values="0 0 0 0 0 0 0 0 0 0 0 0 0 0 0 0 0 0 127 0" result="hardAlpha" />
      <feOffset dy="10.8776" />
      <feGaussianBlur stdDeviation="19.0358" />
      <feComposite in2="hardAlpha" operator="arithmetic" k2="-1" k3="1" />
      <feColorMatrix type="matrix" values="0 0 0 0 1 0 0 0 0 1 0 0 0 0 1 0 0 0 1 0" />
      <feBlend mode="overlay" in2="shape" result="effect1_innerShadow_6_682" />
    </filter>
    <linearGradient id="paint0_linear_6_682" x1="59.0874" y1="31" x2="59.0874" y2="74.8252" gradientUnits="userSpaceOnUse">
      <stop stop-color="#FFD358" />
      <stop offset="1" stop-color="#FA6C21" />
    </linearGradient>
    <linearGradient id="paint1_linear_6_682" x1="8.84181" y1="75.757" x2="124.407" y2="82.7446" gradientUnits="userSpaceOnUse">
      <stop stop-color="#F2F2F2" />
      <stop offset="1" stop-color="#CFCFCF" />
    </linearGradient>
    <linearGradient id="paint2_linear_6_682" x1="11.8779" y1="62.7313" x2="127.443" y2="69.7189" gradientUnits="userSpaceOnUse">
      <stop stop-color="#F2F2F2" />
      <stop offset="1" stop-color="#CFCFCF" />
    </linearGradient>
    <linearGradient id="paint3_linear_6_682" x1="8.03516" y1="90.9977" x2="123.601" y2="97.9854" gradientUnits="userSpaceOnUse">
      <stop stop-color="#F2F2F2" />
      <stop offset="1" stop-color="#CFCFCF" />
    </linearGradient>
    <linearGradient id="paint4_linear_6_682" x1="8.03516" y1="105.511" x2="123.601" y2="112.499" gradientUnits="userSpaceOnUse">
      <stop stop-color="#F2F2F2" />
      <stop offset="1" stop-color="#CFCFCF" />
    </linearGradient>
  </defs>
</svg>
