<svg width="144" height="144" viewBox="0 0 144 144" fill="none" xmlns="http://www.w3.org/2000/svg">
  <mask id="path-1-inside-1_6_539" fill="white">
    <path fill-rule="evenodd" clip-rule="evenodd" d="M101.551 112.203H55.698V112.203C33.2211 112.203 15 94.025 15 71.6015C15 49.178 33.2213 31.0001 55.6984 31.0001C73.7723 31.0001 89.0944 42.7535 94.404 59.0169C96.6813 58.398 99.0779 58.0677 101.552 58.0677C116.537 58.0677 128.684 70.1863 128.684 85.1354C128.684 100.084 116.537 112.203 101.552 112.203C101.552 112.203 101.552 112.203 101.551 112.203Z" />
  </mask>
  <path fill-rule="evenodd" clip-rule="evenodd" d="M101.551 112.203H55.698V112.203C33.2211 112.203 15 94.025 15 71.6015C15 49.178 33.2213 31.0001 55.6984 31.0001C73.7723 31.0001 89.0944 42.7535 94.404 59.0169C96.6813 58.398 99.0779 58.0677 101.552 58.0677C116.537 58.0677 128.684 70.1863 128.684 85.1354C128.684 100.084 116.537 112.203 101.552 112.203C101.552 112.203 101.552 112.203 101.551 112.203Z" fill="url(#paint0_linear_6_539)" />
  <path d="M55.698 112.203H54.7506V113.15H55.698V112.203ZM55.698 112.203H56.6454V111.256L55.698 111.256L55.698 112.203ZM94.404 59.0169L93.5034 59.3109L93.783 60.1673L94.6524 59.9311L94.404 59.0169ZM55.698 113.15H101.551V111.256H55.698V113.15ZM54.7506 112.203V112.203H56.6454V112.203H54.7506ZM14.0526 71.6015C14.0526 94.5503 32.7 113.15 55.698 113.15L55.698 111.256C33.7422 111.255 15.9474 93.4997 15.9474 71.6015H14.0526ZM55.6984 30.0527C32.7002 30.0527 14.0526 48.6526 14.0526 71.6015H15.9474C15.9474 49.7033 33.7424 31.9474 55.6984 31.9474V30.0527ZM95.3046 58.7229C89.8712 42.0802 74.193 30.0527 55.6984 30.0527V31.9474C73.3516 31.9474 88.3177 43.4269 93.5034 59.3109L95.3046 58.7229ZM94.6524 59.9311C96.8495 59.3341 99.1626 59.0151 101.552 59.0151V57.1204C98.9933 57.1204 96.5132 57.462 94.1556 58.1027L94.6524 59.9311ZM101.552 59.0151C116.016 59.0151 127.737 70.7117 127.737 85.1354H129.631C129.631 69.661 117.058 57.1204 101.552 57.1204V59.0151ZM127.737 85.1354C127.737 99.5591 116.016 111.256 101.552 111.256V113.15C117.058 113.15 129.631 100.61 129.631 85.1354H127.737ZM101.552 111.256C101.522 111.256 101.496 111.257 101.474 111.259C101.453 111.261 101.434 111.263 101.42 111.265C101.406 111.267 101.394 111.269 101.388 111.27C101.384 111.271 101.381 111.271 101.38 111.271C101.379 111.272 101.378 111.272 101.378 111.272C101.378 111.272 101.377 111.272 101.377 111.272C101.377 111.272 101.377 111.272 101.377 111.272C101.377 111.272 101.377 111.272 101.377 111.272C101.377 111.272 101.377 111.272 101.377 111.272C101.377 111.272 101.377 111.272 101.377 111.272C101.377 111.272 101.378 111.272 101.38 111.271C101.381 111.271 101.384 111.271 101.388 111.27C101.394 111.269 101.406 111.267 101.42 111.265C101.434 111.263 101.452 111.261 101.474 111.259C101.496 111.257 101.522 111.256 101.551 111.256V113.15C101.581 113.15 101.607 113.149 101.629 113.147C101.651 113.146 101.669 113.143 101.684 113.141C101.698 113.139 101.709 113.137 101.716 113.136C101.719 113.136 101.722 113.135 101.724 113.135C101.724 113.135 101.725 113.134 101.726 113.134C101.726 113.134 101.726 113.134 101.726 113.134C101.726 113.134 101.726 113.134 101.726 113.134C101.726 113.134 101.726 113.134 101.726 113.134C101.726 113.134 101.726 113.134 101.726 113.134C101.726 113.134 101.726 113.134 101.726 113.134C101.727 113.134 101.725 113.134 101.724 113.135C101.722 113.135 101.719 113.136 101.716 113.136C101.709 113.137 101.698 113.139 101.684 113.141C101.67 113.143 101.651 113.145 101.629 113.147C101.607 113.149 101.581 113.15 101.552 113.15V111.256Z" fill="black" fill-opacity="0.05" mask="url(#path-1-inside-1_6_539)" />
  <defs>
    <linearGradient id="paint0_linear_6_539" x1="2" y1="17.5" x2="146" y2="128.5" gradientUnits="userSpaceOnUse">
      <stop stop-color="white" />
      <stop offset="1" stop-color="#393131" />
    </linearGradient>
  </defs>
</svg>
